<svg width="40" height="40" viewBox="0 0 40 40" fill="none" xmlns="http://www.w3.org/2000/svg">
<path d="M38.8955 22C39.487 22 39.9513 22.5117 39.8602 23.0961C38.3684 32.6715 30.0674 40 20.0498 40C13.1754 40 7.10924 36.5488 3.49712 31.2888C3.15973 30.7975 3.36324 30.1308 3.90365 29.8795L5.76298 29.0147C6.21567 28.8042 6.75159 28.962 7.04464 29.3662C9.95837 33.385 14.6978 36 20.0498 36C27.9252 36 34.4742 30.3384 35.8311 22.8729C35.9213 22.3768 36.3433 22 36.8476 22H38.8955ZM20.0498 0C21.8672 0 23.628 0.24165 25.302 0.693859C25.8862 0.851681 26.1602 1.50688 25.8945 2.05058L24.9905 3.90038C24.7761 4.33899 24.2771 4.55533 23.8023 4.44166C22.5985 4.15344 21.3421 4 20.0498 4C11.1912 4.00007 4.00977 11.1635 4.00977 20C4.00977 21.448 4.20332 22.8509 4.56503 24.1849C4.69796 24.6751 4.47475 25.1999 4.01425 25.4142L2.16129 26.2768C1.62798 26.5251 0.994422 26.2621 0.826622 25.6983C0.289167 23.8924 0 21.9799 0 20C0 8.95435 8.97659 6.68398e-05 20.0498 0ZM29.5866 3.62512C29.8409 3.10515 30.4837 2.9072 30.9692 3.22229C35.6422 6.25482 38.9684 11.1781 39.8603 16.9042C39.9513 17.4886 39.487 18 38.8955 18H36.8476C36.3433 18 35.9213 17.6236 35.8311 17.1274C35.0503 12.8311 32.5498 9.13284 29.0664 6.76672C28.6366 6.47481 28.4674 5.91381 28.6956 5.44711L29.5866 3.62512Z" fill="url(#paint0_linear_505_6370)"/>
<rect x="18" y="14" width="4" height="16" rx="2" fill="#A3CFFF"/>
<rect x="24" y="10" width="4" height="20" rx="2" fill="#2563EB"/>
<rect x="12" y="21" width="4" height="9" rx="2" fill="#DBEAFE"/>
<defs>
<linearGradient id="paint0_linear_505_6370" x1="3.99712" y1="29" x2="39.983" y2="9.52168" gradientUnits="userSpaceOnUse">
<stop stop-color="#BFDBFE"/>
<stop offset="1" stop-color="#2563EB"/>
</linearGradient>
</defs>
</svg>
